<?xml version="1.0" standalone="no"?>
<!DOCTYPE svg PUBLIC "-//W3C//DTD SVG 20010904//EN"
 "http://www.w3.org/TR/2001/REC-SVG-20010904/DTD/svg10.dtd">
<svg version="1.0" xmlns="http://www.w3.org/2000/svg"
 width="258.000000pt" height="258.000000pt" viewBox="0 0 258.000000 258.000000"
 preserveAspectRatio="xMidYMid meet">
<metadata>
Created by potrace 1.11, written by Peter Selinger 2001-2013
</metadata>
<g transform="translate(0.000000,258.000000) scale(0.100000,-0.100000)"
fill="#000000" stroke="none">
<path d="M1531 2470 c-67 -18 -161 -34 -226 -40 -65 -5 -132 -17 -163 -28
-139 -53 -251 -190 -272 -334 -6 -34 -14 -172 -18 -306 -5 -133 -13 -247 -18
-252 -6 -6 -57 46 -136 138 -69 81 -138 158 -152 171 l-25 23 -24 -48 c-74
-148 -135 -349 -158 -519 -16 -124 -6 -356 20 -462 88 -355 315 -605 633 -697
175 -51 402 -53 576 -6 501 136 782 670 662 1259 -22 108 -84 298 -104 319
-11 11 -43 -6 -181 -94 l-168 -108 -65 35 -64 34 6 69 c4 39 8 71 9 73 2 1 55
10 118 18 88 12 124 22 159 43 55 34 97 100 106 168 6 47 4 54 -22 83 -27 30
-34 32 -114 37 -47 3 -100 7 -119 10 l-33 5 83 51 c97 59 155 110 164 145 8
34 -30 106 -81 153 -103 95 -204 110 -393 60z m249 -155 c17 -9 30 -19 30 -23
0 -4 -66 -47 -146 -96 -80 -49 -156 -103 -170 -118 -37 -45 -36 -99 5 -141 23
-23 39 -29 111 -37 47 -5 108 -10 135 -11 39 -1 26 -5 -62 -18 -98 -14 -116
-20 -142 -45 -36 -34 -36 -36 -60 -239 -17 -141 -21 -159 -42 -177 -13 -11
-28 -19 -34 -20 -5 0 -74 59 -152 130 -78 72 -145 130 -150 130 -4 0 -26 -19
-49 -41 l-42 -42 3 39 c3 22 7 129 9 239 3 110 10 217 16 237 17 59 69 120
129 151 30 15 64 26 75 26 20 -1 20 -1 1 -6 -53 -14 -105 -75 -105 -124 0 -13
12 -36 27 -51 23 -24 35 -28 80 -28 47 0 58 4 93 36 26 24 42 48 46 72 6 31 3
39 -25 64 -17 15 -38 28 -47 28 -8 0 -12 5 -9 10 3 6 32 10 63 11 31 0 104 13
162 28 122 33 208 38 250 16z m-1064 -935 c76 -88 142 -160 146 -160 5 0 60
47 122 105 63 58 118 105 123 104 4 0 71 -58 148 -128 l139 -129 123 94 c67
52 128 94 135 94 7 0 38 -16 68 -34 30 -19 59 -32 65 -28 5 3 46 29 90 57 44
29 99 64 122 78 l41 26 23 -92 c19 -77 23 -120 23 -262 1 -206 -18 -294 -96
-454 -43 -87 -65 -118 -132 -186 -108 -108 -214 -167 -376 -207 -88 -21 -317
-16 -415 10 -208 56 -366 179 -457 358 -110 212 -139 457 -88 723 11 58 49
191 54 191 2 0 66 -72 142 -160z"/>
</g>
</svg>
